<?xml version="1.0" encoding="UTF-8"?>
<svg id="Calque_1" data-name="Calque 1" xmlns="http://www.w3.org/2000/svg" width="280" height="30" xmlns:xlink="http://www.w3.org/1999/xlink" viewBox="0 0 280 30">
  <defs>
    <style>
      .cls-1 {
        fill: url(#linear-gradient);
      }
    </style>
    <linearGradient id="linear-gradient" x1="103.52" y1="14.88" x2="279.62" y2="14.88" gradientUnits="userSpaceOnUse">
      <stop offset="0" stop-color="#9e000d"/>
      <stop offset=".34" stop-color="red"/>
      <stop offset=".65" stop-color="#ff4b00"/>
      <stop offset="1" stop-color="#ffa900"/>
    </linearGradient>
  </defs>
  <path d="M89.68,3.5h-24.25c-6.28,0-11.38,5.11-11.38,11.38s5.11,11.38,11.38,11.38h19.02v-6.84h5.55c4.23-.17,7.62-3.69,7.62-7.96s-3.57-7.96-7.95-7.96ZM75.23,10.37h-9.86c-2.49,0-4.52,2.03-4.52,4.52s2.03,4.52,4.52,4.52h5.29v-2.24h-5.29c-1.26,0-2.28-1.02-2.28-2.28s1.02-2.28,2.28-2.28h9.86v11.37h-9.86c-5.01,0-9.09-4.08-9.09-9.09s4.08-9.09,9.08-9.09h9.86v4.56ZM89.51,17.18h-7.45v6.8h-4.59v-11.37h12.03c.62,0,1.12-.5,1.12-1.12s-.5-1.12-1.12-1.12h-12.03v-4.58l12.03.02c3.12.02,5.67,2.56,5.67,5.68s-2.54,5.68-5.67,5.68ZM87.27,24.38h-.72v-.41h1.86v.41h-.72v1.88h-.42v-1.88ZM88.84,23.98h.44l.67,1.13.67-1.13h.44v2.29h-.42v-1.61l-.52.89h-.34l-.52-.87v1.59h-.42v-2.29ZM51.96,9.39v16.88h-6.53v-14.32c0-.35-.42-.52-.67-.27l-11.64,12.92c-1.57,1.69-4.15,2.36-6.35,1.58-2.34-.83-3.86-3-3.86-5.46v-8.81c0-.35-.42-.52-.67-.27l-13.16,14.63H.38L19.28,5.25c.99-1.1,2.66-1.75,4.29-1.75,3.25,0,5.87,2.63,5.87,5.88v8.67c0,.35.42.52.67.27l11.77-13.05c1.78-1.84,4.59-2.31,6.9-1.1,1.96,1.02,3.17,3.04,3.17,5.22Z"/>
  <path class="cls-1" d="M130.71,8.4h-10.98v17.86h-5.26V8.4h-10.95V3.51h27.19v4.89ZM138.48,3.51v22.75h-5.29V3.51h5.29ZM141.2,14.88c0-6.82,4.61-11.37,11.94-11.37h14.36v4.89h-14.45c-4.12,0-6.57,2.61-6.57,6.48s2.44,6.49,6.57,6.49h14.45v4.89h-14.36c-7.33,0-11.94-4.55-11.94-11.38ZM170.39,3.51h5.29v10.89l14.08-10.89h7.59l-12.85,10.04,13.11,12.71h-7.05l-9.93-9.5-4.95,3.95v5.55h-5.29V3.51ZM222.96,26.26h-17.8c-4.89,0-7.25-2.36-7.25-7.23v-8.3c0-4.83,2.42-7.22,7.25-7.22h17.8v4.89h-17.57c-1.71,0-2.3.62-2.3,2.33v1.71h19.31v4.89h-19.31v1.7c0,1.71.6,2.34,2.3,2.34h17.57v4.89ZM252.29,8.4h-10.98v17.86h-5.26V8.4h-10.95V3.51h27.19v4.89ZM254.03,21.37h18.31c1.22,0,1.99-.52,1.99-1.54,0-.97-.68-1.39-1.87-1.65l-13.17-2.02c-3.9-.63-5.8-2.87-5.8-6.32s2.65-6.34,7.06-6.34h18.03v4.89h-17.81c-1.25,0-1.99.51-1.99,1.53,0,.97.68,1.39,1.85,1.65l13.17,2.02c3.9.62,5.83,2.84,5.83,6.25,0,3.61-2.67,6.4-7.05,6.4h-18.54v-4.89Z"/>
</svg>